Coordinates
version=1
nRows=14
nColumns=33
inDegrees=yes

Units are S.I. units (second, meters, Newtons, ...)
Angles are in degrees.

endheader
time	ground_thorax_rot_x	ground_thorax_rot_y	ground_thorax_rot_z	ground_thorax_tx	ground_thorax_ty	ground_thorax_tz	clav_prot_r	clav_elev_r	scapula_abduction_r	scapula_elevation_r	scapula_upward_rot_r	scapula_winging_r	shoulder_elv_r	plane_of_elev_r	axial_rot_r	elbow_flexion_r	pro_sup_r	wrist_flex_r	wrist_dev_r	clav_prot_l	clav_elev_l	scapula_abduction_l	scapula_elevation_l	scapula_upward_rot_l	scapula_winging_l	shoulder_elv_l	plane_of_elev_l	axial_rot_l	elbow_flexion_l	pro_sup_l	wrist_flex_l	wrist_dev_l	
10.8100	24.158446	31.776531	49.232029	-47.116783	781.064228	10.179958	14.123489	35.863654	32.443125	45.000000	-45.000000	-2235.189584	-2274.298892	146.272460	180.000000	1085.402046	-304.535889	21.761493	13.218876	6.390169	-45.000000	-35.444151	45.000000	-45.000000	2250.946119	-4783.169983	143.310765	138.185400	366.329732	22.597485	9.717743	-18.090475	
10.8200	24.132533	31.761971	49.243131	-47.481934	781.082126	10.269273	14.084881	35.839152	32.416531	45.000000	-45.000000	-2235.225762	-2274.310173	146.229603	180.000000	1085.481045	-304.265948	21.848715	13.205584	6.443707	-45.000000	-35.508216	45.000000	-45.000000	2250.985020	-4783.189745	143.247422	138.482938	366.370380	23.198763	9.680435	-18.173419	
10.8300	24.102765	31.766098	49.230031	-47.862999	781.078868	10.359420	14.058556	35.780736	32.370492	45.000000	-45.000000	-2235.323493	-2274.345381	146.140754	180.000000	1085.550354	-304.021723	21.984351	13.245185	6.479511	-45.000000	-35.650772	45.000000	-45.000000	2251.089756	-4783.242014	143.109006	138.763745	366.414107	23.765253	9.657579	-18.262834	
10.8400	24.092378	31.755978	49.216715	-48.280589	781.034907	10.447563	14.037662	35.759921	32.347433	45.000000	-45.000000	-2235.373933	-2274.347948	146.098702	180.000000	1085.603468	-303.841502	22.062136	13.263540	6.495634	-45.000000	-35.707817	45.000000	-45.000000	2251.136878	-4783.255925	143.033270	138.997747	366.450138	24.270001	9.623066	-18.333312	
10.8500	24.097206	31.736544	49.191331	-48.739077	780.939747	10.541786	14.016395	35.749614	32.330185	45.000000	-45.000000	-2235.397767	-2274.328540	146.079958	180.000000	1085.648655	-303.722496	22.104924	13.278761	6.501683	-45.000000	-35.712613	45.000000	-45.000000	2251.156363	-4783.241088	142.979564	139.209567	366.478444	24.705151	9.586966	-18.390936	
10.8600	24.129643	31.702641	49.137466	-49.246642	780.779760	10.651843	13.999168	35.745513	32.324166	45.000000	-45.000000	-2235.416340	-2274.286291	146.069498	180.000000	1085.695974	-303.668033	22.138052	13.308998	6.490151	-45.000000	-35.700189	45.000000	-45.000000	2251.172098	-4783.217910	142.925102	139.408710	366.499641	25.060495	9.552347	-18.437185	
10.8700	24.192884	31.649227	49.046419	-49.806682	780.548372	10.786951	13.979104	35.742985	32.318791	45.000000	-45.000000	-2235.409853	-2274.208468	146.072941	180.000000	1085.760851	-303.669986	22.147738	13.338414	6.475827	-45.000000	-35.659027	45.000000	-45.000000	2251.160982	-4783.170573	142.878810	139.618432	366.514958	25.339357	9.523162	-18.473731	
10.8800	24.287685	31.578759	48.912728	-50.416192	780.249843	10.948572	13.964675	35.741727	32.321972	45.000000	-45.000000	-2235.412242	-2274.111399	146.075998	180.000000	1085.848833	-303.716116	22.171789	13.386669	6.452148	-45.000000	-35.643221	45.000000	-45.000000	2251.158698	-4783.129160	142.811098	139.850571	366.523941	25.549328	9.502122	-18.504802	
10.8900	24.404463	31.491804	48.748948	-51.064880	779.905455	11.120046	13.958915	35.751563	32.315459	45.000000	-45.000000	-2235.401317	-2273.984567	146.075048	180.000000	1085.957191	-303.792442	22.181283	13.427338	6.433975	-45.000000	-35.614276	45.000000	-45.000000	2251.137171	-4783.066862	142.747661	140.098810	366.527864	25.704568	9.490251	-18.530381	
10.9000	24.524141	31.407991	48.578661	-51.735812	779.549325	11.270482	13.968788	35.774236	32.327532	45.000000	-45.000000	-2235.417454	-2273.872643	146.078938	180.000000	1086.060150	-303.884867	22.206811	13.475356	6.411926	-45.000000	-35.625742	45.000000	-45.000000	2251.135099	-4783.018020	142.678385	140.342628	366.530387	25.819219	9.482792	-18.552994	
10.9100	24.623450	31.340681	48.428395	-52.408089	779.224800	11.357815	13.989199	35.803933	32.336914	45.000000	-45.000000	-2235.440232	-2273.778240	146.082041	180.000000	1086.129709	-303.975724	22.214656	13.508227	6.404876	-45.000000	-35.636778	45.000000	-45.000000	2251.131126	-4782.961061	142.628766	140.553320	366.535234	25.911525	9.482901	-18.574975	
10.9200	24.678666	31.301387	48.337709	-53.063986	778.969596	11.345425	14.011865	35.838586	32.377688	45.000000	-45.000000	-2235.498760	-2273.755006	146.095290	180.000000	1086.134399	-304.049960	22.225912	13.535459	6.407707	-45.000000	-35.661955	45.000000	-45.000000	2251.168017	-4782.916913	142.597415	140.712976	366.547033	25.992009	9.476921	-18.595748	
10.9300	24.685747	31.295427	48.301340	-53.694813	778.806947	11.211720	14.034074	35.867978	32.406181	45.000000	-45.000000	-2235.570832	-2273.770070	146.090579	180.000000	1086.074980	-304.093759	22.218636	13.546761	6.430040	-45.000000	-35.667269	45.000000	-45.000000	2251.224836	-4782.866632	142.588164	140.794582	366.570323	26.070541	9.472117	-18.618707	
10.9400	24.648165	31.325855	48.320092	-54.307640	778.732788	10.965288	14.044792	35.889115	32.453871	45.000000	-45.000000	-2235.676610	-2273.843184	146.090822	180.000000	1085.958418	-304.100836	22.217939	13.552537	6.456196	-45.000000	-35.681729	45.000000	-45.000000	2251.318106	-4782.833000	142.594023	140.801228	366.602159	26.150036	9.457064	-18.641136	
